#!OML:ASF F:\VICON\USERDATA\INSTALL\rory3\rory3.ASF
:FULLY-SPECIFIED
:DEGREES
67
root -0.830145 18.4772 3.87232 5.47055 -0.122062 3.09633
lowerback 14.0435 -1.15653 -2.66466
upperback -1.64391 -1.91961 0.893559
thorax -9.5637 -0.749897 2.89396
lowerneck -17.4163 -2.20946 -1.76601
upperneck 14.7965 -2.96331 2.1842
head 7.47288 -1.30519 0.667948
rclavicle 1.18277e-014 8.34896e-015
rhumerus -73.097 4.21076 -93.692
rradius 97.4465
rwrist -18.81
rhand -20.2239 41.2041
rfingers 7.12502
rthumb 6.12363 11.3126
lclavicle 1.18277e-014 8.34896e-015
lhumerus -38.569 -12.9412 90.3644
lradius 131.337
lwrist 34.1659
lhand -26.6549 -2.88361
lfingers 7.12502
lthumb -0.0867671 27.0961
rfemur -48.5385 3.52344 21.7773
rtibia 60.7299
rfoot 3.9249 -3.43758
rtoes -3.37323
lfemur 17.8992 -1.40352 -27.4294
ltibia 20.8444
lfoot 28.5013 -20.0901
ltoes -31.3118
68
root -0.813534 18.5533 4.42706 5.58871 0.0200351 3.40702
lowerback 14.0039 -1.31748 -2.77659
upperback -1.81599 -2.15735 0.871028
thorax -9.71129 -0.853102 2.98745
lowerneck -17.1582 -2.17237 -1.7206
upperneck 14.6666 -2.91679 2.13756
head 7.38351 -1.2877 0.653175
rclavicle -4.14466e-014 9.14409e-015
rhumerus -73.7057 3.88171 -93.2803
rradius 97.9627
rwrist -18.4755
rhand -20.1858 41.2144
rfingers 7.12502
rthumb 6.16045 11.324
lclavicle -4.14466e-014 9.14409e-015
lhumerus -39.6023 -13.16 90.5014
lradius 131.592
lwrist 35.206
lhand -26.5937 -1.35322
lfingers 7.12502
lthumb -0.0276802 28.6265
rfemur -47.5169 3.51693 21.2287
rtibia 55.4751
rfoot 4.29955 -3.51496
rtoes -3.72102
lfemur 18.4434 -2.3159 -27.9989
ltibia 21.7157
lfoot 28.0451 -16.8396
ltoes -20.5337
69
root -0.806369 18.6194 4.98227 5.7169 0.0836886 3.76225
lowerback 13.8481 -1.43423 -3.0804
upperback -1.91187 -2.36556 0.844831
thorax -9.70211 -0.936373 3.17218
lowerneck -17.0008 -2.15409 -1.65655
upperneck 14.4543 -2.89109 2.05799
head 7.28411 -1.28179 0.621576
rclavicle 1.31198e-014 6.75868e-015
rhumerus -74.016 3.62753 -92.9643
rradius 98.219
rwrist -18.1775
rhand -20.0606 41.4192
rfingers 7.12502
rthumb 6.28129 11.5323
lclavicle 1.31198e-014 6.75868e-015
lhumerus -40.4923 -13.3179 90.6426
lradius 131.588
lwrist 36.124
lhand -26.6179 -0.482907
lfingers 7.12502
lthumb -0.0510175 29.4968
rfemur -46.462 3.59349 20.6554
rtibia 50.2715
rfoot 4.88165 -3.91664
rtoes -3.70161
lfemur 18.7007 -3.10391 -28.587
ltibia 23.0538
lfoot 27.9928 -16.5765
ltoes -14.5682
70
root -0.800514 18.6433 5.52097 5.83222 0.431874 4.13455
lowerback 13.8151 -1.62132 -3.33684
upperback -1.94514 -2.65883 0.848076
thorax -9.68675 -1.06281 3.38267
lowerneck -17.0964 -2.14841 -1.7222
upperneck 14.189 -2.85286 2.01931
head 7.21314 -1.27145 0.62383
rclavicle 2.50469e-014 -6.75868e-015
rhumerus -73.9314 3.3353 -92.5677
rradius 98.3198
rwrist -17.9725
rhand -19.8295 41.8101
rfingers 7.12502
rthumb 6.50439 11.9299
lclavicle 2.50469e-014 -6.75868e-015
lhumerus -41.0971 -13.2787 90.8519
lradius 131.231
lwrist 36.7569
lhand -26.2026 -0.147096
lfingers 7.12502
lthumb 0.350033 29.8324
rfemur -45.4967 3.46138 20.0979
rtibia 45.3412
rfoot 5.5803 -4.78892
rtoes -3.80042
lfemur 18.6769 -3.73989 -28.9155
ltibia 24.9975
lfoot 27.6901 -17.8197
ltoes -15.0661
71
root -0.79851 18.6746 6.05276 5.876 0.722808 4.49687
lowerback 13.9337 -1.74004 -3.6872
upperback -1.93789 -2.87812 0.890001
thorax -9.71185 -1.14633 3.67817
lowerneck -17.356 -2.15329 -1.86561
upperneck 13.9526 -2.81822 2.04087
head 7.18165 -1.25984 0.656487
rclavicle -1.14301e-014 3.97569e-015
rhumerus -73.6423 3.04408 -92.1186
rradius 98.4384
rwrist -17.6583
rhand -19.9906 41.7966
rfingers 7.12502
rthumb 6.34887 11.9117
lclavicle -1.14301e-014 3.97569e-015
lhumerus -41.633 -13.0521 91.1318
lradius 130.57
lwrist 36.8193
lhand -25.6581 -0.154019
lfingers 7.12502
lthumb 0.875963 29.8239
rfemur -44.2982 3.44005 19.577
rtibia 40.6846
rfoot 6.14269 -5.79586
rtoes -5.47718
lfemur 18.4861 -4.49491 -29.3108
ltibia 27.4692
lfoot 27.0286 -18.5901
ltoes -16.0894
72
root -0.79697 18.689 6.57868 5.89156 0.900281 4.80783
lowerback 13.932 -1.79439 -3.92329
upperback -1.83582 -2.98971 0.884346
thorax -9.57776 -1.19294 3.82537
lowerneck -17.7942 -2.1995 -1.95052
upperneck 13.8503 -2.84193 1.99872
head 7.22349 -1.27695 0.650343
rclavicle -3.27001e-014 -3.18055e-015
rhumerus -73.1363 2.59282 -91.6526
rradius 98.5717
rwrist -17.4696
rhand -19.9305 41.8894
rfingers 7.12502
rthumb 6.40696 12.0063
lclavicle -3.27001e-014 -3.18055e-015
lhumerus -42.1713 -12.8467 91.4707
lradius 129.802
lwrist 36.8445
lhand -25.2227 -0.622846
lfingers 7.12502
lthumb 1.29651 29.353
rfemur -43.1204 3.6358 19.0989
rtibia 36.6028
rfoot 6.13884 -6.91589
rtoes -7.18489
lfemur 18.0394 -5.05052 -29.5986
ltibia 30.322
lfoot 26.5613 -18.4248
ltoes -14.853
73
root -0.787949 18.6946 7.10703 5.90893 1.38503 5.17
lowerback 13.9989 -1.95721 -3.95985
upperback -1.79193 -3.22184 0.809465
thorax -9.54927 -1.30617 3.81572
lowerneck -17.9943 -2.2489 -2.04099
upperneck 13.6072 -2.88452 2.04112
head 7.18057 -1.29765 0.672994
rclavicle 2.45499e-014 -1.11319e-014
rhumerus -72.4506 2.06692 -91.1685
rradius 98.3254
rwrist -17.5228
rhand -19.3558 42.3977
rfingers 7.12502
rthumb 6.96169 12.5321
lclavicle 2.45499e-014 -1.11319e-014
lhumerus -42.9162 -12.6702 91.8777
lradius 128.882
lwrist 37.1049
lhand -24.918 -1.62764
lfingers 7.12502
lthumb 1.5908 28.3462
rfemur -41.9553 3.70015 18.4652
rtibia 33.0473
rfoot 5.44752 -8.81482
rtoes -8.41159
lfemur 17.453 -5.69305 -29.8177
ltibia 33.3421
lfoot 26.0729 -17.9275
ltoes -14.9141
74
root -0.779669 18.6863 7.65204 5.81996 1.72709 5.64999
lowerback 13.9808 -2.01485 -4.1872
upperback -1.68306 -3.34486 0.698245
thorax -9.40246 -1.36319 3.84441
lowerneck -18.1597 -2.34885 -2.09094
upperneck 13.4146 -3.00232 2.05436
head 7.14879 -1.35495 0.671068
rclavicle -3.73715e-014 7.15625e-015
rhumerus -71.6861 1.52928 -90.6869
rradius 97.9575
rwrist -17.4528
rhand -18.8916 42.5764
rfingers 7.12502
rthumb 7.40983 12.7262
lclavicle -3.73715e-014 7.15625e-015
lhumerus -43.5132 -12.4823 92.2204
lradius 127.728
lwrist 37.3373
lhand -24.9957 -1.89862
lfingers 7.12502
lthumb 1.51567 28.0757
rfemur -40.7753 4.12875 17.5842
rtibia 30.1251
rfoot 6.15257 -10.2945
rtoes -12.4636
lfemur 16.8351 -6.05977 -30.1424
ltibia 36.6836
lfoot 25.3655 -17.965
ltoes -17.388
75
root -0.77132 18.6728 8.20114 5.64402 1.71084 5.73219
lowerback 13.7981 -1.96056 -4.14257
upperback -1.43971 -3.25151 0.680797
thorax -9.0419 -1.33768 3.762
lowerneck -18.0327 -2.49283 -2.18469
upperneck 12.8789 -3.17126 2.0905
head 6.95818 -1.44049 0.681932
rclavicle 5.96354e-014 7.15625e-015
rhumerus -70.694 1.12839 -90.3016
rradius 97.5517
rwrist -17.1968
rhand -18.9203 42.3905
rfingers 7.12502
rthumb 7.3821 12.5393
lclavicle 5.96354e-014 7.15625e-015
lhumerus -43.7311 -12.2524 92.5289
lradius 126.262
lwrist 37.0697
lhand -25.874 -1.35627
lfingers 7.12502
lthumb 0.667429 28.6224
rfemur -39.6613 4.75357 17.2596
rtibia 27.9509
rfoot 6.58753 -11.3862
rtoes -13.8145
lfemur 16.0559 -6.01735 -30.0774
ltibia 40.2378
lfoot 25.4065 -17.5944
ltoes -15.0984
76
root -0.760296 18.6529 8.73606 5.49731 1.52782 5.42281
lowerback 13.6175 -1.84187 -3.77829
upperback -1.10404 -3.00568 0.800455
thorax -8.60474 -1.25325 3.61406
lowerneck -18.2772 -2.59694 -2.27678
upperneck 12.4828 -3.27445 2.08648
head 6.87358 -1.49465 0.683005
rclavicle -3.33958e-014 1.11319e-014
rhumerus -69.3139 0.719015 -89.9362
rradius 97.0963
rwrist -16.919
rhand -19.2019 42.4234
rfingers 7.12502
rthumb 7.11027 12.5628
lclavicle -3.33958e-014 1.11319e-014
lhumerus -43.5835 -11.9568 92.7856
lradius 124.478
lwrist 36.7972
lhand -25.9671 -1.07308
lfingers 7.12502
lthumb 0.577492 28.9059
rfemur -38.7977 5.21747 17.612
rtibia 26.6019
rfoot 7.13096 -11.8425
rtoes -13.3746
lfemur 14.9544 -5.85215 -29.6128
ltibia 43.9764
lfoot 25.9905 -17.0158
ltoes -9.50172
77
root -0.740408 18.6041 9.27037 5.21296 1.32034 5.21626
lowerback 13.5453 -1.76224 -3.38731
upperback -0.82643 -2.8242 0.83179
thorax -8.29349 -1.19585 3.37796
lowerneck -18.4054 -2.61985 -2.4263
upperneck 12.394 -3.28632 2.2309
head 6.87144 -1.49375 0.751749
rclavicle -5.56597e-014 7.15625e-015
rhumerus -68.0329 0.441509 -89.7351
rradius 96.5349
rwrist -16.7073
rhand -19.2244 42.3045
rfingers 7.12502
rthumb 7.08859 12.4432
lclavicle -5.56597e-014 7.15625e-015
lhumerus -43.548 -11.4935 92.8736
lradius 122.422
lwrist 36.6299
lhand -25.6847 -1.54864
lfingers 7.12502
lthumb 0.850239 28.4294
rfemur -37.8416 5.33336 18.0666
rtibia 25.8682
rfoot 7.59336 -12.0556
rtoes -13.6749
lfemur 13.8913 -5.60472 -29.2909
ltibia 47.9449
lfoot 26.5702 -17.1976
ltoes -8.15351
